<svg xmlns="http://www.w3.org/2000/svg" xmlns:xlink="http://www.w3.org/1999/xlink" width="500" zoomAndPan="magnify" viewBox="0 0 375 374.999991" height="500" preserveAspectRatio="xMidYMid meet" version="1.0"><rect x="-37.5" width="450" fill="#ffffff" y="-37.499999" height="449.999989" fill-opacity="1"/><path fill="#f7931e" d="M 187.058594 0.289062 C 290.207031 0.160156 374.398438 83.660156 374.671875 186.445312 C 374.992188 289.996094 291.050781 374.726562 188.03125 374.832031 C 84.132812 374.9375 0.296875 291.550781 0.160156 187.957031 C 0.0234375 83.964844 83.226562 0.425781 187.058594 0.289062 Z M 187.058594 0.289062 " fill-opacity="1" fill-rule="nonzero"/><path fill="#000000" d="M 217.578125 215.160156 C 214.996094 217.933594 212.675781 220.578125 210.191406 223.0625 C 194.148438 239.144531 178.085938 255.207031 162.011719 271.257812 C 150.636719 282.671875 150.753906 289.121094 162.359375 300.789062 C 164.9375 303.375 167.472656 306.046875 170.222656 308.457031 C 177.402344 314.769531 184.871094 315.074219 191.730469 308.257812 C 228.375 271.84375 264.933594 235.332031 301.398438 198.714844 C 308.484375 191.601562 308.636719 183.328125 301.609375 176.25 C 265.21875 139.585938 228.667969 103.078125 191.960938 66.71875 C 184.78125 59.601562 176.910156 60.09375 169.546875 66.9375 C 166.328125 69.925781 163.265625 73.085938 160.25 76.285156 C 151.664062 85.363281 151.574219 93.089844 160.363281 102.015625 C 177.351562 119.214844 194.558594 136.210938 211.566406 153.394531 C 213.671875 155.523438 217.089844 156.964844 216.976562 161.730469 L 206.023438 161.730469 C 166.449219 161.730469 126.875 161.683594 87.300781 161.785156 C 73.199219 161.785156 68.328125 166.867188 68.085938 181.027344 C 68.027344 184.324219 68.085938 187.621094 68.085938 190.925781 C 68.15625 209.320312 72.105469 213.230469 90.929688 213.246094 C 129.039062 213.246094 167.148438 213.203125 205.261719 213.316406 C 209.0625 213.324219 213.148438 212.078125 217.578125 215.160156 Z M 217.578125 215.160156 " fill-opacity="1" fill-rule="nonzero"/></svg>