<svg xmlns="http://www.w3.org/2000/svg" xmlns:xlink="http://www.w3.org/1999/xlink" width="1080" zoomAndPan="magnify" viewBox="0 0 810 1439.999935" height="1920" preserveAspectRatio="xMidYMid meet" version="1.0"><defs><clipPath id="7ec18a29fe"><path d="M 0 237.601562 L 799.5 237.601562 L 799.5 1037.101562 L 0 1037.101562 Z M 0 237.601562 " clip-rule="nonzero"/></clipPath><clipPath id="d0739e8343"><path d="M 799.5 637.351562 C 799.5 643.890625 799.339844 650.429688 799.019531 656.964844 C 798.699219 663.5 798.214844 670.023438 797.574219 676.53125 C 796.933594 683.042969 796.132812 689.535156 795.171875 696.003906 C 794.214844 702.476562 793.09375 708.921875 791.820312 715.335938 C 790.542969 721.753906 789.109375 728.136719 787.519531 734.480469 C 785.929688 740.828125 784.1875 747.128906 782.285156 753.390625 C 780.386719 759.652344 778.335938 765.863281 776.132812 772.023438 C 773.929688 778.179688 771.574219 784.285156 769.070312 790.328125 C 766.566406 796.371094 763.917969 802.351562 761.121094 808.265625 C 758.324219 814.179688 755.382812 820.019531 752.296875 825.789062 C 749.214844 831.558594 745.992188 837.25 742.628906 842.863281 C 739.261719 848.472656 735.765625 854 732.128906 859.4375 C 728.496094 864.878906 724.730469 870.226562 720.832031 875.480469 C 716.933594 880.734375 712.910156 885.890625 708.761719 890.949219 C 704.609375 896.003906 700.339844 900.957031 695.945312 905.804688 C 691.550781 910.652344 687.042969 915.390625 682.414062 920.015625 C 677.789062 924.640625 673.054688 929.152344 668.207031 933.546875 C 663.359375 937.9375 658.40625 942.210938 653.347656 946.359375 C 648.292969 950.511719 643.136719 954.535156 637.878906 958.433594 C 632.625 962.328125 627.277344 966.09375 621.839844 969.730469 C 616.398438 973.363281 610.875 976.863281 605.261719 980.226562 C 599.652344 983.589844 593.960938 986.8125 588.191406 989.898438 C 582.421875 992.980469 576.578125 995.921875 570.664062 998.71875 C 564.75 1001.515625 558.773438 1004.167969 552.726562 1006.671875 C 546.683594 1009.175781 540.582031 1011.527344 534.421875 1013.730469 C 528.261719 1015.9375 522.050781 1017.988281 515.792969 1019.886719 C 509.53125 1021.785156 503.226562 1023.53125 496.882812 1025.121094 C 490.535156 1026.710938 484.152344 1028.140625 477.738281 1029.417969 C 471.320312 1030.695312 464.875 1031.8125 458.40625 1032.773438 C 451.933594 1033.734375 445.441406 1034.535156 438.933594 1035.175781 C 432.421875 1035.816406 425.898438 1036.296875 419.363281 1036.617188 C 412.832031 1036.9375 406.292969 1037.101562 399.75 1037.101562 C 393.207031 1037.101562 386.667969 1036.9375 380.136719 1036.617188 C 373.601562 1036.296875 367.078125 1035.816406 360.566406 1035.175781 C 354.058594 1034.535156 347.566406 1033.734375 341.09375 1032.773438 C 334.625 1031.8125 328.179688 1030.695312 321.761719 1029.417969 C 315.347656 1028.140625 308.964844 1026.710938 302.617188 1025.121094 C 296.273438 1023.53125 289.96875 1021.785156 283.707031 1019.886719 C 277.449219 1017.988281 271.238281 1015.9375 265.078125 1013.730469 C 258.917969 1011.527344 252.816406 1009.175781 246.773438 1006.671875 C 240.726562 1004.167969 234.75 1001.515625 228.835938 998.71875 C 222.921875 995.921875 217.078125 992.980469 211.308594 989.898438 C 205.539062 986.8125 199.847656 983.589844 194.238281 980.226562 C 188.625 976.863281 183.101562 973.363281 177.660156 969.730469 C 172.222656 966.09375 166.875 962.328125 161.621094 958.433594 C 156.363281 954.535156 151.207031 950.511719 146.152344 946.359375 C 141.09375 942.210938 136.140625 937.9375 131.292969 933.546875 C 126.445312 929.152344 121.710938 924.640625 117.085938 920.015625 C 112.457031 915.390625 107.949219 910.652344 103.554688 905.804688 C 99.160156 900.957031 94.890625 896.003906 90.738281 890.949219 C 86.589844 885.890625 82.566406 880.734375 78.667969 875.480469 C 74.769531 870.226562 71.003906 864.878906 67.371094 859.4375 C 63.734375 854 60.238281 848.472656 56.871094 842.863281 C 53.507812 837.25 50.285156 831.558594 47.203125 825.789062 C 44.117188 820.019531 41.175781 814.179688 38.378906 808.265625 C 35.582031 802.351562 32.933594 796.371094 30.429688 790.328125 C 27.925781 784.285156 25.570312 778.179688 23.367188 772.023438 C 21.164062 765.863281 19.113281 759.652344 17.214844 753.390625 C 15.3125 747.128906 13.570312 740.828125 11.980469 734.480469 C 10.390625 728.136719 8.957031 721.753906 7.679688 715.335938 C 6.40625 708.921875 5.285156 702.476562 4.328125 696.003906 C 3.367188 689.535156 2.566406 683.042969 1.925781 676.53125 C 1.285156 670.023438 0.800781 663.5 0.480469 656.964844 C 0.160156 650.429688 0 643.890625 0 637.351562 C 0 630.808594 0.160156 624.269531 0.480469 617.734375 C 0.800781 611.199219 1.285156 604.679688 1.925781 598.167969 C 2.566406 591.65625 3.367188 585.164062 4.328125 578.695312 C 5.285156 572.222656 6.40625 565.777344 7.679688 559.363281 C 8.957031 552.945312 10.390625 546.566406 11.980469 540.21875 C 13.570312 533.871094 15.3125 527.570312 17.214844 521.308594 C 19.113281 515.046875 21.164062 508.839844 23.367188 502.679688 C 25.570312 496.519531 27.925781 490.417969 30.429688 484.371094 C 32.933594 478.328125 35.582031 472.347656 38.378906 466.433594 C 41.175781 460.519531 44.117188 454.679688 47.203125 448.910156 C 50.285156 443.140625 53.507812 437.449219 56.871094 431.835938 C 60.238281 426.226562 63.734375 420.699219 67.371094 415.261719 C 71.003906 409.820312 74.769531 404.472656 78.667969 399.21875 C 82.566406 393.964844 86.589844 388.808594 90.738281 383.75 C 94.890625 378.695312 99.160156 373.742188 103.554688 368.894531 C 107.949219 364.046875 112.457031 359.308594 117.085938 354.683594 C 121.710938 350.058594 126.445312 345.546875 131.292969 341.15625 C 136.140625 336.761719 141.09375 332.488281 146.152344 328.339844 C 151.207031 324.1875 156.363281 320.164062 161.621094 316.269531 C 166.875 312.371094 172.222656 308.605469 177.660156 304.96875 C 183.101562 301.335938 188.625 297.835938 194.238281 294.472656 C 199.847656 291.109375 205.539062 287.886719 211.308594 284.800781 C 217.078125 281.71875 222.921875 278.777344 228.835938 275.980469 C 234.75 273.183594 240.726562 270.53125 246.773438 268.027344 C 252.816406 265.527344 258.917969 263.171875 265.078125 260.96875 C 271.238281 258.765625 277.449219 256.710938 283.707031 254.8125 C 289.96875 252.914062 296.273438 251.167969 302.617188 249.578125 C 308.964844 247.992188 315.347656 246.558594 321.761719 245.28125 C 328.179688 244.003906 334.625 242.886719 341.09375 241.925781 C 347.566406 240.964844 354.058594 240.167969 360.566406 239.523438 C 367.078125 238.882812 373.601562 238.402344 380.136719 238.082031 C 386.667969 237.761719 393.207031 237.601562 399.75 237.601562 C 406.292969 237.601562 412.832031 237.761719 419.363281 238.082031 C 425.898438 238.402344 432.421875 238.882812 438.933594 239.523438 C 445.441406 240.167969 451.933594 240.964844 458.40625 241.925781 C 464.875 242.886719 471.320312 244.003906 477.738281 245.28125 C 484.152344 246.558594 490.535156 247.992188 496.882812 249.578125 C 503.226562 251.167969 509.53125 252.914062 515.792969 254.8125 C 522.050781 256.710938 528.261719 258.765625 534.421875 260.96875 C 540.582031 263.171875 546.683594 265.527344 552.726562 268.027344 C 558.773438 270.53125 564.75 273.183594 570.664062 275.980469 C 576.578125 278.777344 582.421875 281.71875 588.191406 284.800781 C 593.960938 287.886719 599.652344 291.109375 605.261719 294.472656 C 610.875 297.835938 616.398438 301.335938 621.839844 304.96875 C 627.277344 308.605469 632.625 312.371094 637.878906 316.269531 C 643.136719 320.164062 648.292969 324.1875 653.347656 328.339844 C 658.40625 332.488281 663.359375 336.761719 668.207031 341.15625 C 673.054688 345.546875 677.789062 350.058594 682.414062 354.683594 C 687.042969 359.308594 691.550781 364.046875 695.945312 368.894531 C 700.339844 373.742188 704.609375 378.695312 708.761719 383.75 C 712.910156 388.808594 716.933594 393.964844 720.832031 399.21875 C 724.730469 404.472656 728.496094 409.820312 732.128906 415.261719 C 735.765625 420.699219 739.261719 426.226562 742.625 431.835938 C 745.992188 437.449219 749.214844 443.140625 752.296875 448.910156 C 755.382812 454.679688 758.324219 460.519531 761.121094 466.433594 C 763.917969 472.347656 766.566406 478.328125 769.070312 484.371094 C 771.574219 490.417969 773.929688 496.519531 776.132812 502.679688 C 778.335938 508.839844 780.386719 515.046875 782.285156 521.308594 C 784.1875 527.570312 785.929688 533.871094 787.519531 540.21875 C 789.109375 546.566406 790.542969 552.945312 791.820312 559.363281 C 793.09375 565.777344 794.214844 572.222656 795.171875 578.695312 C 796.132812 585.164062 796.933594 591.65625 797.574219 598.167969 C 798.214844 604.679688 798.699219 611.199219 799.019531 617.734375 C 799.339844 624.269531 799.5 630.808594 799.5 637.351562 Z M 799.5 637.351562 " clip-rule="nonzero"/></clipPath><linearGradient x1="59.999997" gradientTransform="matrix(14.276785, 0, 0, 14.276785, -57.107122, 180.492772)" y1="4.000003" x2="4" gradientUnits="userSpaceOnUse" y2="60" id="b87e6aea34"><stop stop-opacity="1" stop-color="rgb(100%, 92.199707%, 93.699646%)" offset="0"/><stop stop-opacity="1" stop-color="rgb(100%, 92.199707%, 93.699646%)" offset="0.125"/><stop stop-opacity="1" stop-color="rgb(99.990845%, 92.082214%, 93.606567%)" offset="0.15625"/><stop stop-opacity="1" stop-color="rgb(99.969482%, 91.777039%, 93.367004%)" offset="0.171875"/><stop stop-opacity="1" stop-color="rgb(99.942017%, 91.404724%, 93.074036%)" offset="0.1875"/><stop stop-opacity="1" stop-color="rgb(99.916077%, 91.030884%, 92.779541%)" offset="0.203125"/><stop stop-opacity="1" stop-color="rgb(99.888611%, 90.657043%, 92.485046%)" offset="0.21875"/><stop stop-opacity="1" stop-color="rgb(99.862671%, 90.283203%, 92.192078%)" offset="0.234375"/><stop stop-opacity="1" stop-color="rgb(99.836731%, 89.910889%, 91.897583%)" offset="0.25"/><stop stop-opacity="1" stop-color="rgb(99.809265%, 89.537048%, 91.604614%)" offset="0.265625"/><stop stop-opacity="1" stop-color="rgb(99.783325%, 89.163208%, 91.31012%)" offset="0.28125"/><stop stop-opacity="1" stop-color="rgb(99.757385%, 88.789368%, 91.015625%)" offset="0.296875"/><stop stop-opacity="1" stop-color="rgb(99.729919%, 88.417053%, 90.722656%)" offset="0.3125"/><stop stop-opacity="1" stop-color="rgb(99.703979%, 88.043213%, 90.428162%)" offset="0.328125"/><stop stop-opacity="1" stop-color="rgb(99.676514%, 87.669373%, 90.135193%)" offset="0.34375"/><stop stop-opacity="1" stop-color="rgb(99.650574%, 87.297058%, 89.840698%)" offset="0.359375"/><stop stop-opacity="1" stop-color="rgb(99.624634%, 86.923218%, 89.546204%)" offset="0.375"/><stop stop-opacity="1" stop-color="rgb(99.597168%, 86.549377%, 89.253235%)" offset="0.390625"/><stop stop-opacity="1" stop-color="rgb(99.571228%, 86.175537%, 88.95874%)" offset="0.40625"/><stop stop-opacity="1" stop-color="rgb(99.545288%, 85.803223%, 88.665771%)" offset="0.421875"/><stop stop-opacity="1" stop-color="rgb(99.517822%, 85.429382%, 88.371277%)" offset="0.4375"/><stop stop-opacity="1" stop-color="rgb(99.491882%, 85.055542%, 88.076782%)" offset="0.453125"/><stop stop-opacity="1" stop-color="rgb(99.464417%, 84.681702%, 87.783813%)" offset="0.46875"/><stop stop-opacity="1" stop-color="rgb(99.438477%, 84.309387%, 87.489319%)" offset="0.484375"/><stop stop-opacity="1" stop-color="rgb(99.412537%, 83.935547%, 87.19635%)" offset="0.5"/><stop stop-opacity="1" stop-color="rgb(99.398804%, 83.74939%, 87.049866%)" offset="0.5"/><stop stop-opacity="1" stop-color="rgb(99.385071%, 83.561707%, 86.901855%)" offset="0.5"/><stop stop-opacity="1" stop-color="rgb(99.372864%, 83.375549%, 86.755371%)" offset="0.515625"/><stop stop-opacity="1" stop-color="rgb(99.359131%, 83.187866%, 86.607361%)" offset="0.53125"/><stop stop-opacity="1" stop-color="rgb(99.333191%, 82.815552%, 86.314392%)" offset="0.546875"/><stop stop-opacity="1" stop-color="rgb(99.305725%, 82.441711%, 86.019897%)" offset="0.5625"/><stop stop-opacity="1" stop-color="rgb(99.279785%, 82.067871%, 85.726929%)" offset="0.578125"/><stop stop-opacity="1" stop-color="rgb(99.252319%, 81.694031%, 85.432434%)" offset="0.59375"/><stop stop-opacity="1" stop-color="rgb(99.226379%, 81.321716%, 85.137939%)" offset="0.609375"/><stop stop-opacity="1" stop-color="rgb(99.200439%, 80.947876%, 84.844971%)" offset="0.625"/><stop stop-opacity="1" stop-color="rgb(99.172974%, 80.574036%, 84.550476%)" offset="0.640625"/><stop stop-opacity="1" stop-color="rgb(99.147034%, 80.201721%, 84.257507%)" offset="0.65625"/><stop stop-opacity="1" stop-color="rgb(99.121094%, 79.827881%, 83.963013%)" offset="0.671875"/><stop stop-opacity="1" stop-color="rgb(99.093628%, 79.454041%, 83.668518%)" offset="0.6875"/><stop stop-opacity="1" stop-color="rgb(99.067688%, 79.0802%, 83.375549%)" offset="0.703125"/><stop stop-opacity="1" stop-color="rgb(99.040222%, 78.707886%, 83.081055%)" offset="0.71875"/><stop stop-opacity="1" stop-color="rgb(99.014282%, 78.334045%, 82.788086%)" offset="0.734375"/><stop stop-opacity="1" stop-color="rgb(98.988342%, 77.960205%, 82.493591%)" offset="0.75"/><stop stop-opacity="1" stop-color="rgb(98.960876%, 77.586365%, 82.199097%)" offset="0.765625"/><stop stop-opacity="1" stop-color="rgb(98.934937%, 77.21405%, 81.906128%)" offset="0.78125"/><stop stop-opacity="1" stop-color="rgb(98.907471%, 76.84021%, 81.611633%)" offset="0.796875"/><stop stop-opacity="1" stop-color="rgb(98.881531%, 76.46637%, 81.317139%)" offset="0.8125"/><stop stop-opacity="1" stop-color="rgb(98.855591%, 76.092529%, 81.02417%)" offset="0.828125"/><stop stop-opacity="1" stop-color="rgb(98.828125%, 75.720215%, 80.729675%)" offset="0.84375"/><stop stop-opacity="1" stop-color="rgb(98.806763%, 75.416565%, 80.490112%)" offset="0.875"/><stop stop-opacity="1" stop-color="rgb(98.799133%, 75.299072%, 80.39856%)" offset="1"/></linearGradient><clipPath id="27a58f1d92"><path d="M 166 408 L 634 408 L 634 867 L 166 867 Z M 166 408 " clip-rule="nonzero"/></clipPath><clipPath id="f9966f8e28"><path d="M 596.570312 655.28125 L 632.363281 522.378906 C 634.488281 514.46875 632.789062 505.859375 627.808594 499.335938 C 622.726562 492.742188 615.058594 488.957031 606.75 488.957031 L 266.121094 488.957031 L 255.226562 438.601562 C 251.441406 421.113281 235.710938 408.421875 217.820312 408.421875 L 174.433594 408.421875 C 169.894531 408.421875 166.226562 412.089844 166.226562 416.628906 C 166.226562 421.171875 169.894531 424.839844 174.433594 424.839844 L 217.820312 424.839844 C 228.027344 424.839844 237.007812 432.09375 239.164062 442.070312 L 297.457031 711.730469 C 301.425781 730.007812 317.871094 743.285156 336.574219 743.285156 L 591.289062 743.285156 C 595.828125 743.285156 599.496094 739.601562 599.496094 735.074219 C 599.496094 730.535156 595.828125 726.867188 591.289062 726.867188 L 336.605469 726.867188 C 325.582031 726.867188 315.875 719.042969 313.53125 708.261719 L 306.324219 674.925781 L 570.957031 674.925781 C 582.933594 674.914062 593.457031 666.847656 596.570312 655.28125 Z M 572.785156 505.375 L 606.75 505.375 C 609.917969 505.375 612.84375 506.816406 614.773438 509.328125 C 616.671875 511.8125 617.328125 515.097656 616.5 518.109375 L 609.976562 542.339844 L 565.503906 542.339844 Z M 605.550781 558.742188 L 594.386719 600.1875 L 554.097656 600.1875 L 562.261719 558.742188 Z M 496.574219 505.375 L 556.039062 505.375 L 548.757812 542.339844 L 492.449219 542.339844 Z M 399.5625 505.375 L 403.691406 542.339844 L 347.382812 542.339844 L 340.101562 505.375 Z M 269.675781 505.375 L 323.355469 505.375 L 330.636719 542.339844 L 277.667969 542.339844 Z M 281.210938 558.742188 L 333.863281 558.742188 L 342.027344 600.1875 L 290.175781 600.1875 Z M 302.78125 658.492188 L 293.730469 616.621094 L 345.253906 616.621094 L 353.507812 658.492188 Z M 350.59375 558.742188 L 405.503906 558.742188 L 410.128906 600.1875 L 358.761719 600.1875 Z M 370.238281 658.492188 L 361.988281 616.621094 L 411.957031 616.621094 L 416.625 658.492188 Z M 462.96875 658.492188 L 433.15625 658.492188 L 428.488281 616.621094 L 467.652344 616.621094 Z M 469.476562 600.203125 L 426.660156 600.203125 L 422.035156 558.757812 L 474.101562 558.757812 Z M 420.207031 542.324219 L 416.082031 505.359375 L 480.058594 505.359375 L 475.929688 542.324219 Z M 525.886719 658.492188 L 479.5 658.492188 L 484.167969 616.621094 L 534.125 616.621094 Z M 485.996094 600.203125 L 490.621094 558.757812 L 545.53125 558.757812 L 537.363281 600.203125 Z M 550.871094 616.621094 L 589.972656 616.621094 L 580.707031 651.027344 C 579.523438 655.425781 575.511719 658.507812 570.957031 658.507812 L 542.617188 658.507812 Z M 362.929688 766.398438 C 335.390625 766.398438 312.988281 788.796875 312.988281 816.339844 C 312.988281 843.878906 335.40625 866.277344 362.929688 866.277344 C 390.457031 866.277344 412.871094 843.863281 412.871094 816.339844 C 412.871094 788.796875 390.46875 766.398438 362.929688 766.398438 Z M 533.195312 766.398438 C 505.65625 766.398438 483.253906 788.796875 483.253906 816.339844 C 483.253906 843.878906 505.65625 866.277344 533.195312 866.277344 C 560.734375 866.277344 583.136719 843.863281 583.136719 816.339844 C 583.136719 788.796875 560.734375 766.398438 533.195312 766.398438 Z M 533.195312 766.398438 " clip-rule="nonzero"/></clipPath><linearGradient x1="14.497497" gradientTransform="matrix(14.276785, 0, 0, 14.276785, -57.107122, 180.492772)" y1="46.889502" x2="46.931999" gradientUnits="userSpaceOnUse" y2="14.455003" id="894af8dc3f"><stop stop-opacity="1" stop-color="rgb(4.699707%, 75.299072%, 87.5%)" offset="0"/><stop stop-opacity="1" stop-color="rgb(4.699707%, 75.299072%, 87.5%)" offset="0.125"/><stop stop-opacity="1" stop-color="rgb(4.699707%, 75.299072%, 87.5%)" offset="0.1875"/><stop stop-opacity="1" stop-color="rgb(5.047607%, 75.115967%, 87.380981%)" offset="0.191406"/><stop stop-opacity="1" stop-color="rgb(5.397034%, 74.932861%, 87.263489%)" offset="0.195312"/><stop stop-opacity="1" stop-color="rgb(5.917358%, 74.658203%, 87.086487%)" offset="0.199219"/><stop stop-opacity="1" stop-color="rgb(6.439209%, 74.385071%, 86.911011%)" offset="0.203125"/><stop stop-opacity="1" stop-color="rgb(6.96106%, 74.111938%, 86.734009%)" offset="0.207031"/><stop stop-opacity="1" stop-color="rgb(7.48291%, 73.838806%, 86.558533%)" offset="0.210938"/><stop stop-opacity="1" stop-color="rgb(8.003235%, 73.564148%, 86.381531%)" offset="0.214844"/><stop stop-opacity="1" stop-color="rgb(8.525085%, 73.291016%, 86.206055%)" offset="0.21875"/><stop stop-opacity="1" stop-color="rgb(9.046936%, 73.016357%, 86.029053%)" offset="0.222656"/><stop stop-opacity="1" stop-color="rgb(9.568787%, 72.743225%, 85.853577%)" offset="0.226562"/><stop stop-opacity="1" stop-color="rgb(10.089111%, 72.468567%, 85.676575%)" offset="0.230469"/><stop stop-opacity="1" stop-color="rgb(10.610962%, 72.195435%, 85.501099%)" offset="0.234375"/><stop stop-opacity="1" stop-color="rgb(11.132812%, 71.920776%, 85.324097%)" offset="0.238281"/><stop stop-opacity="1" stop-color="rgb(11.654663%, 71.647644%, 85.148621%)" offset="0.242188"/><stop stop-opacity="1" stop-color="rgb(12.174988%, 71.372986%, 84.971619%)" offset="0.246094"/><stop stop-opacity="1" stop-color="rgb(12.696838%, 71.099854%, 84.796143%)" offset="0.25"/><stop stop-opacity="1" stop-color="rgb(13.218689%, 70.826721%, 84.619141%)" offset="0.253906"/><stop stop-opacity="1" stop-color="rgb(13.74054%, 70.553589%, 84.443665%)" offset="0.257812"/><stop stop-opacity="1" stop-color="rgb(14.260864%, 70.278931%, 84.266663%)" offset="0.261719"/><stop stop-opacity="1" stop-color="rgb(14.782715%, 70.005798%, 84.091187%)" offset="0.265625"/><stop stop-opacity="1" stop-color="rgb(15.304565%, 69.73114%, 83.914185%)" offset="0.269531"/><stop stop-opacity="1" stop-color="rgb(15.826416%, 69.458008%, 83.738708%)" offset="0.273438"/><stop stop-opacity="1" stop-color="rgb(16.346741%, 69.18335%, 83.561707%)" offset="0.277344"/><stop stop-opacity="1" stop-color="rgb(16.868591%, 68.910217%, 83.38623%)" offset="0.28125"/><stop stop-opacity="1" stop-color="rgb(17.390442%, 68.635559%, 83.209229%)" offset="0.285156"/><stop stop-opacity="1" stop-color="rgb(17.912292%, 68.362427%, 83.033752%)" offset="0.289062"/><stop stop-opacity="1" stop-color="rgb(18.432617%, 68.087769%, 82.85675%)" offset="0.292969"/><stop stop-opacity="1" stop-color="rgb(18.954468%, 67.814636%, 82.681274%)" offset="0.296875"/><stop stop-opacity="1" stop-color="rgb(19.476318%, 67.541504%, 82.504272%)" offset="0.300781"/><stop stop-opacity="1" stop-color="rgb(19.998169%, 67.268372%, 82.328796%)" offset="0.304688"/><stop stop-opacity="1" stop-color="rgb(20.518494%, 66.993713%, 82.151794%)" offset="0.308594"/><stop stop-opacity="1" stop-color="rgb(21.040344%, 66.720581%, 81.976318%)" offset="0.3125"/><stop stop-opacity="1" stop-color="rgb(21.562195%, 66.445923%, 81.799316%)" offset="0.316406"/><stop stop-opacity="1" stop-color="rgb(22.084045%, 66.172791%, 81.62384%)" offset="0.320312"/><stop stop-opacity="1" stop-color="rgb(22.60437%, 65.898132%, 81.446838%)" offset="0.324219"/><stop stop-opacity="1" stop-color="rgb(23.126221%, 65.625%, 81.271362%)" offset="0.328125"/><stop stop-opacity="1" stop-color="rgb(23.648071%, 65.350342%, 81.09436%)" offset="0.332031"/><stop stop-opacity="1" stop-color="rgb(24.169922%, 65.077209%, 80.918884%)" offset="0.335938"/><stop stop-opacity="1" stop-color="rgb(24.690247%, 64.802551%, 80.741882%)" offset="0.339844"/><stop stop-opacity="1" stop-color="rgb(25.212097%, 64.529419%, 80.566406%)" offset="0.34375"/><stop stop-opacity="1" stop-color="rgb(25.733948%, 64.256287%, 80.389404%)" offset="0.347656"/><stop stop-opacity="1" stop-color="rgb(26.255798%, 63.983154%, 80.213928%)" offset="0.351562"/><stop stop-opacity="1" stop-color="rgb(26.776123%, 63.708496%, 80.036926%)" offset="0.355469"/><stop stop-opacity="1" stop-color="rgb(27.297974%, 63.435364%, 79.86145%)" offset="0.359375"/><stop stop-opacity="1" stop-color="rgb(27.819824%, 63.160706%, 79.684448%)" offset="0.363281"/><stop stop-opacity="1" stop-color="rgb(28.341675%, 62.887573%, 79.508972%)" offset="0.367188"/><stop stop-opacity="1" stop-color="rgb(28.863525%, 62.612915%, 79.33197%)" offset="0.371094"/><stop stop-opacity="1" stop-color="rgb(29.385376%, 62.339783%, 79.156494%)" offset="0.375"/><stop stop-opacity="1" stop-color="rgb(29.905701%, 62.065125%, 78.979492%)" offset="0.378906"/><stop stop-opacity="1" stop-color="rgb(30.427551%, 61.791992%, 78.804016%)" offset="0.382812"/><stop stop-opacity="1" stop-color="rgb(30.949402%, 61.51886%, 78.627014%)" offset="0.386719"/><stop stop-opacity="1" stop-color="rgb(31.471252%, 61.245728%, 78.451538%)" offset="0.390625"/><stop stop-opacity="1" stop-color="rgb(31.991577%, 60.971069%, 78.274536%)" offset="0.394531"/><stop stop-opacity="1" stop-color="rgb(32.513428%, 60.697937%, 78.09906%)" offset="0.398438"/><stop stop-opacity="1" stop-color="rgb(33.035278%, 60.423279%, 77.922058%)" offset="0.402344"/><stop stop-opacity="1" stop-color="rgb(33.557129%, 60.150146%, 77.746582%)" offset="0.40625"/><stop stop-opacity="1" stop-color="rgb(34.077454%, 59.875488%, 77.56958%)" offset="0.410156"/><stop stop-opacity="1" stop-color="rgb(34.599304%, 59.602356%, 77.394104%)" offset="0.414062"/><stop stop-opacity="1" stop-color="rgb(35.121155%, 59.327698%, 77.217102%)" offset="0.417969"/><stop stop-opacity="1" stop-color="rgb(35.643005%, 59.054565%, 77.041626%)" offset="0.421875"/><stop stop-opacity="1" stop-color="rgb(36.16333%, 58.779907%, 76.864624%)" offset="0.425781"/><stop stop-opacity="1" stop-color="rgb(36.685181%, 58.506775%, 76.689148%)" offset="0.429687"/><stop stop-opacity="1" stop-color="rgb(37.207031%, 58.233643%, 76.512146%)" offset="0.433594"/><stop stop-opacity="1" stop-color="rgb(37.728882%, 57.96051%, 76.33667%)" offset="0.4375"/><stop stop-opacity="1" stop-color="rgb(38.249207%, 57.685852%, 76.159668%)" offset="0.441406"/><stop stop-opacity="1" stop-color="rgb(38.771057%, 57.41272%, 75.984192%)" offset="0.445312"/><stop stop-opacity="1" stop-color="rgb(39.292908%, 57.138062%, 75.80719%)" offset="0.449219"/><stop stop-opacity="1" stop-color="rgb(39.814758%, 56.864929%, 75.631714%)" offset="0.453125"/><stop stop-opacity="1" stop-color="rgb(40.335083%, 56.590271%, 75.456238%)" offset="0.457031"/><stop stop-opacity="1" stop-color="rgb(40.856934%, 56.317139%, 75.280762%)" offset="0.460938"/><stop stop-opacity="1" stop-color="rgb(41.378784%, 56.04248%, 75.10376%)" offset="0.464844"/><stop stop-opacity="1" stop-color="rgb(41.900635%, 55.769348%, 74.928284%)" offset="0.46875"/><stop stop-opacity="1" stop-color="rgb(42.420959%, 55.49469%, 74.751282%)" offset="0.472656"/><stop stop-opacity="1" stop-color="rgb(42.94281%, 55.221558%, 74.575806%)" offset="0.476562"/><stop stop-opacity="1" stop-color="rgb(43.464661%, 54.948425%, 74.398804%)" offset="0.480469"/><stop stop-opacity="1" stop-color="rgb(43.986511%, 54.675293%, 74.223328%)" offset="0.484375"/><stop stop-opacity="1" stop-color="rgb(44.506836%, 54.400635%, 74.046326%)" offset="0.488281"/><stop stop-opacity="1" stop-color="rgb(45.028687%, 54.127502%, 73.87085%)" offset="0.492188"/><stop stop-opacity="1" stop-color="rgb(45.550537%, 53.852844%, 73.693848%)" offset="0.496094"/><stop stop-opacity="1" stop-color="rgb(46.072388%, 53.579712%, 73.518372%)" offset="0.5"/><stop stop-opacity="1" stop-color="rgb(46.592712%, 53.305054%, 73.34137%)" offset="0.503906"/><stop stop-opacity="1" stop-color="rgb(47.114563%, 53.031921%, 73.165894%)" offset="0.507812"/><stop stop-opacity="1" stop-color="rgb(47.636414%, 52.757263%, 72.988892%)" offset="0.511719"/><stop stop-opacity="1" stop-color="rgb(48.158264%, 52.484131%, 72.813416%)" offset="0.515625"/><stop stop-opacity="1" stop-color="rgb(48.678589%, 52.209473%, 72.636414%)" offset="0.519531"/><stop stop-opacity="1" stop-color="rgb(49.200439%, 51.93634%, 72.460938%)" offset="0.523438"/><stop stop-opacity="1" stop-color="rgb(49.72229%, 51.663208%, 72.283936%)" offset="0.527344"/><stop stop-opacity="1" stop-color="rgb(50.244141%, 51.390076%, 72.108459%)" offset="0.53125"/><stop stop-opacity="1" stop-color="rgb(50.765991%, 51.115417%, 71.931458%)" offset="0.535156"/><stop stop-opacity="1" stop-color="rgb(51.287842%, 50.842285%, 71.755981%)" offset="0.539062"/><stop stop-opacity="1" stop-color="rgb(51.808167%, 50.567627%, 71.578979%)" offset="0.542969"/><stop stop-opacity="1" stop-color="rgb(52.330017%, 50.294495%, 71.403503%)" offset="0.546875"/><stop stop-opacity="1" stop-color="rgb(52.851868%, 50.019836%, 71.226501%)" offset="0.550781"/><stop stop-opacity="1" stop-color="rgb(53.373718%, 49.746704%, 71.051025%)" offset="0.554688"/><stop stop-opacity="1" stop-color="rgb(53.894043%, 49.472046%, 70.874023%)" offset="0.558594"/><stop stop-opacity="1" stop-color="rgb(54.415894%, 49.198914%, 70.698547%)" offset="0.5625"/><stop stop-opacity="1" stop-color="rgb(54.937744%, 48.924255%, 70.521545%)" offset="0.566406"/><stop stop-opacity="1" stop-color="rgb(55.459595%, 48.651123%, 70.346069%)" offset="0.570312"/><stop stop-opacity="1" stop-color="rgb(55.979919%, 48.377991%, 70.169067%)" offset="0.574219"/><stop stop-opacity="1" stop-color="rgb(56.50177%, 48.104858%, 69.993591%)" offset="0.578125"/><stop stop-opacity="1" stop-color="rgb(57.023621%, 47.8302%, 69.816589%)" offset="0.582031"/><stop stop-opacity="1" stop-color="rgb(57.545471%, 47.557068%, 69.641113%)" offset="0.585938"/><stop stop-opacity="1" stop-color="rgb(58.065796%, 47.28241%, 69.464111%)" offset="0.589844"/><stop stop-opacity="1" stop-color="rgb(58.587646%, 47.009277%, 69.288635%)" offset="0.59375"/><stop stop-opacity="1" stop-color="rgb(59.109497%, 46.734619%, 69.111633%)" offset="0.597656"/><stop stop-opacity="1" stop-color="rgb(59.631348%, 46.461487%, 68.936157%)" offset="0.601562"/><stop stop-opacity="1" stop-color="rgb(60.151672%, 46.186829%, 68.759155%)" offset="0.605469"/><stop stop-opacity="1" stop-color="rgb(60.673523%, 45.913696%, 68.583679%)" offset="0.609375"/><stop stop-opacity="1" stop-color="rgb(61.195374%, 45.639038%, 68.406677%)" offset="0.613281"/><stop stop-opacity="1" stop-color="rgb(61.717224%, 45.365906%, 68.231201%)" offset="0.617188"/><stop stop-opacity="1" stop-color="rgb(62.237549%, 45.092773%, 68.054199%)" offset="0.621094"/><stop stop-opacity="1" stop-color="rgb(62.759399%, 44.819641%, 67.878723%)" offset="0.625"/><stop stop-opacity="1" stop-color="rgb(63.28125%, 44.544983%, 67.701721%)" offset="0.628906"/><stop stop-opacity="1" stop-color="rgb(63.803101%, 44.271851%, 67.526245%)" offset="0.632812"/><stop stop-opacity="1" stop-color="rgb(64.323425%, 43.997192%, 67.349243%)" offset="0.636719"/><stop stop-opacity="1" stop-color="rgb(64.845276%, 43.72406%, 67.173767%)" offset="0.640625"/><stop stop-opacity="1" stop-color="rgb(65.367126%, 43.449402%, 66.996765%)" offset="0.644531"/><stop stop-opacity="1" stop-color="rgb(65.888977%, 43.17627%, 66.821289%)" offset="0.648438"/><stop stop-opacity="1" stop-color="rgb(66.409302%, 42.901611%, 66.644287%)" offset="0.652344"/><stop stop-opacity="1" stop-color="rgb(66.931152%, 42.628479%, 66.468811%)" offset="0.65625"/><stop stop-opacity="1" stop-color="rgb(67.453003%, 42.353821%, 66.291809%)" offset="0.660156"/><stop stop-opacity="1" stop-color="rgb(67.974854%, 42.080688%, 66.116333%)" offset="0.664062"/><stop stop-opacity="1" stop-color="rgb(68.495178%, 41.807556%, 65.939331%)" offset="0.667969"/><stop stop-opacity="1" stop-color="rgb(69.017029%, 41.534424%, 65.763855%)" offset="0.671875"/><stop stop-opacity="1" stop-color="rgb(69.538879%, 41.259766%, 65.586853%)" offset="0.675781"/><stop stop-opacity="1" stop-color="rgb(70.06073%, 40.986633%, 65.411377%)" offset="0.679688"/><stop stop-opacity="1" stop-color="rgb(70.581055%, 40.711975%, 65.234375%)" offset="0.683594"/><stop stop-opacity="1" stop-color="rgb(71.102905%, 40.438843%, 65.058899%)" offset="0.6875"/><stop stop-opacity="1" stop-color="rgb(71.624756%, 40.164185%, 64.881897%)" offset="0.691406"/><stop stop-opacity="1" stop-color="rgb(72.146606%, 39.891052%, 64.706421%)" offset="0.695312"/><stop stop-opacity="1" stop-color="rgb(72.666931%, 39.616394%, 64.529419%)" offset="0.699219"/><stop stop-opacity="1" stop-color="rgb(73.188782%, 39.343262%, 64.353943%)" offset="0.703125"/><stop stop-opacity="1" stop-color="rgb(73.710632%, 39.068604%, 64.176941%)" offset="0.707031"/><stop stop-opacity="1" stop-color="rgb(74.232483%, 38.795471%, 64.001465%)" offset="0.710937"/><stop stop-opacity="1" stop-color="rgb(74.754333%, 38.522339%, 63.824463%)" offset="0.714844"/><stop stop-opacity="1" stop-color="rgb(75.276184%, 38.249207%, 63.648987%)" offset="0.71875"/><stop stop-opacity="1" stop-color="rgb(75.796509%, 37.974548%, 63.471985%)" offset="0.722656"/><stop stop-opacity="1" stop-color="rgb(76.318359%, 37.701416%, 63.296509%)" offset="0.726563"/><stop stop-opacity="1" stop-color="rgb(76.84021%, 37.426758%, 63.119507%)" offset="0.730469"/><stop stop-opacity="1" stop-color="rgb(77.362061%, 37.153625%, 62.944031%)" offset="0.734375"/><stop stop-opacity="1" stop-color="rgb(77.882385%, 36.878967%, 62.767029%)" offset="0.738281"/><stop stop-opacity="1" stop-color="rgb(78.404236%, 36.605835%, 62.591553%)" offset="0.742188"/><stop stop-opacity="1" stop-color="rgb(78.926086%, 36.331177%, 62.414551%)" offset="0.746094"/><stop stop-opacity="1" stop-color="rgb(79.447937%, 36.058044%, 62.239075%)" offset="0.75"/><stop stop-opacity="1" stop-color="rgb(79.968262%, 35.783386%, 62.062073%)" offset="0.753906"/><stop stop-opacity="1" stop-color="rgb(80.490112%, 35.510254%, 61.886597%)" offset="0.757812"/><stop stop-opacity="1" stop-color="rgb(81.011963%, 35.237122%, 61.709595%)" offset="0.761719"/><stop stop-opacity="1" stop-color="rgb(81.533813%, 34.963989%, 61.534119%)" offset="0.765625"/><stop stop-opacity="1" stop-color="rgb(82.054138%, 34.689331%, 61.357117%)" offset="0.769531"/><stop stop-opacity="1" stop-color="rgb(82.575989%, 34.416199%, 61.181641%)" offset="0.773438"/><stop stop-opacity="1" stop-color="rgb(83.097839%, 34.141541%, 61.004639%)" offset="0.777344"/><stop stop-opacity="1" stop-color="rgb(83.61969%, 33.868408%, 60.829163%)" offset="0.78125"/><stop stop-opacity="1" stop-color="rgb(84.140015%, 33.59375%, 60.652161%)" offset="0.785156"/><stop stop-opacity="1" stop-color="rgb(84.661865%, 33.320618%, 60.476685%)" offset="0.789062"/><stop stop-opacity="1" stop-color="rgb(85.183716%, 33.045959%, 60.299683%)" offset="0.792969"/><stop stop-opacity="1" stop-color="rgb(85.705566%, 32.772827%, 60.124207%)" offset="0.796875"/><stop stop-opacity="1" stop-color="rgb(86.225891%, 32.498169%, 59.947205%)" offset="0.800781"/><stop stop-opacity="1" stop-color="rgb(86.747742%, 32.225037%, 59.771729%)" offset="0.804688"/><stop stop-opacity="1" stop-color="rgb(87.269592%, 31.951904%, 59.594727%)" offset="0.808594"/><stop stop-opacity="1" stop-color="rgb(87.791443%, 31.678772%, 59.41925%)" offset="0.8125"/><stop stop-opacity="1" stop-color="rgb(88.311768%, 31.404114%, 59.242249%)" offset="0.816406"/><stop stop-opacity="1" stop-color="rgb(88.833618%, 31.130981%, 59.066772%)" offset="0.820312"/><stop stop-opacity="1" stop-color="rgb(89.355469%, 30.856323%, 58.889771%)" offset="0.824219"/><stop stop-opacity="1" stop-color="rgb(89.877319%, 30.583191%, 58.714294%)" offset="0.828125"/><stop stop-opacity="1" stop-color="rgb(90.397644%, 30.308533%, 58.537292%)" offset="0.832031"/><stop stop-opacity="1" stop-color="rgb(90.919495%, 30.0354%, 58.361816%)" offset="0.835938"/><stop stop-opacity="1" stop-color="rgb(91.441345%, 29.760742%, 58.184814%)" offset="0.839844"/><stop stop-opacity="1" stop-color="rgb(91.963196%, 29.48761%, 58.009338%)" offset="0.84375"/><stop stop-opacity="1" stop-color="rgb(92.483521%, 29.212952%, 57.832336%)" offset="0.847656"/><stop stop-opacity="1" stop-color="rgb(93.005371%, 28.939819%, 57.65686%)" offset="0.851562"/><stop stop-opacity="1" stop-color="rgb(93.527222%, 28.666687%, 57.479858%)" offset="0.855469"/><stop stop-opacity="1" stop-color="rgb(94.049072%, 28.393555%, 57.304382%)" offset="0.859375"/><stop stop-opacity="1" stop-color="rgb(94.569397%, 28.118896%, 57.12738%)" offset="0.863281"/><stop stop-opacity="1" stop-color="rgb(95.091248%, 27.845764%, 56.951904%)" offset="0.867187"/><stop stop-opacity="1" stop-color="rgb(95.613098%, 27.571106%, 56.774902%)" offset="0.871094"/><stop stop-opacity="1" stop-color="rgb(96.134949%, 27.297974%, 56.599426%)" offset="0.875"/><stop stop-opacity="1" stop-color="rgb(96.655273%, 27.023315%, 56.422424%)" offset="0.878906"/><stop stop-opacity="1" stop-color="rgb(97.177124%, 26.750183%, 56.246948%)" offset="0.882812"/><stop stop-opacity="1" stop-color="rgb(97.698975%, 26.475525%, 56.069946%)" offset="0.886719"/><stop stop-opacity="1" stop-color="rgb(98.220825%, 26.202393%, 55.89447%)" offset="0.890625"/><stop stop-opacity="1" stop-color="rgb(98.509216%, 26.049805%, 55.796814%)" offset="0.894531"/><stop stop-opacity="1" stop-color="rgb(98.799133%, 25.898743%, 55.699158%)" offset="0.898437"/><stop stop-opacity="1" stop-color="rgb(98.799133%, 25.898743%, 55.699158%)" offset="0.90625"/><stop stop-opacity="1" stop-color="rgb(98.799133%, 25.898743%, 55.699158%)" offset="0.9375"/><stop stop-opacity="1" stop-color="rgb(98.799133%, 25.898743%, 55.699158%)" offset="1"/></linearGradient></defs><g clip-path="url(#7ec18a29fe)"><g clip-path="url(#d0739e8343)"><path fill="url(#b87e6aea34)" d="M 0 237.601562 L 0 1037.101562 L 799.5 1037.101562 L 799.5 237.601562 Z M 0 237.601562 " fill-rule="nonzero"/></g></g><g clip-path="url(#27a58f1d92)"><g clip-path="url(#f9966f8e28)"><path fill="url(#894af8dc3f)" d="M 166.226562 408.421875 L 166.226562 866.277344 L 634.488281 866.277344 L 634.488281 408.421875 Z M 166.226562 408.421875 " fill-rule="nonzero"/></g></g></svg>