<svg xmlns="http://www.w3.org/2000/svg" xmlns:xlink="http://www.w3.org/1999/xlink" width="1080" zoomAndPan="magnify" viewBox="0 0 810 1439.999935" height="1920" preserveAspectRatio="xMidYMid meet" version="1.0"><defs><clipPath id="b76125062a"><path d="M 81 198 L 493.5 198 L 493.5 610.5 L 81 610.5 Z M 81 198 " clip-rule="nonzero"/></clipPath><clipPath id="69e8377877"><path d="M 493.5 404.25 C 493.5 407.625 493.417969 411 493.25 414.371094 C 493.085938 417.742188 492.835938 421.105469 492.507812 424.464844 C 492.175781 427.824219 491.761719 431.175781 491.265625 434.511719 C 490.773438 437.851562 490.195312 441.175781 489.535156 444.488281 C 488.878906 447.796875 488.140625 451.089844 487.320312 454.363281 C 486.5 457.640625 485.597656 460.890625 484.617188 464.121094 C 483.640625 467.351562 482.582031 470.554688 481.445312 473.734375 C 480.304688 476.910156 479.089844 480.058594 477.800781 483.179688 C 476.507812 486.296875 475.140625 489.382812 473.699219 492.433594 C 472.253906 495.484375 470.738281 498.5 469.144531 501.476562 C 467.554688 504.453125 465.890625 507.386719 464.15625 510.285156 C 462.421875 513.179688 460.617188 516.03125 458.742188 518.835938 C 456.863281 521.644531 454.921875 524.402344 452.910156 527.113281 C 450.902344 529.824219 448.824219 532.484375 446.683594 535.09375 C 444.542969 537.703125 442.335938 540.257812 440.070312 542.757812 C 437.804688 545.261719 435.476562 547.703125 433.089844 550.089844 C 430.703125 552.476562 428.261719 554.804688 425.757812 557.070312 C 423.257812 559.335938 420.703125 561.542969 418.09375 563.683594 C 415.484375 565.824219 412.824219 567.902344 410.113281 569.910156 C 407.402344 571.921875 404.644531 573.863281 401.835938 575.742188 C 399.03125 577.617188 396.179688 579.421875 393.285156 581.15625 C 390.386719 582.890625 387.453125 584.554688 384.476562 586.144531 C 381.5 587.738281 378.484375 589.253906 375.433594 590.699219 C 372.382812 592.140625 369.296875 593.507812 366.179688 594.800781 C 363.058594 596.089844 359.910156 597.304688 356.734375 598.441406 C 353.554688 599.582031 350.351562 600.640625 347.121094 601.617188 C 343.890625 602.597656 340.640625 603.5 337.363281 604.320312 C 334.089844 605.140625 330.796875 605.878906 327.488281 606.535156 C 324.175781 607.195312 320.851562 607.773438 317.511719 608.265625 C 314.175781 608.761719 310.824219 609.175781 307.464844 609.507812 C 304.105469 609.835938 300.742188 610.085938 297.371094 610.25 C 294 610.417969 290.625 610.5 287.25 610.5 C 283.875 610.5 280.5 610.417969 277.128906 610.25 C 273.757812 610.085938 270.394531 609.835938 267.035156 609.507812 C 263.675781 609.175781 260.324219 608.761719 256.988281 608.265625 C 253.648438 607.773438 250.324219 607.195312 247.011719 606.535156 C 243.703125 605.878906 240.410156 605.140625 237.136719 604.320312 C 233.859375 603.5 230.609375 602.597656 227.378906 601.617188 C 224.148438 600.640625 220.945312 599.582031 217.765625 598.441406 C 214.589844 597.304688 211.441406 596.089844 208.320312 594.800781 C 205.203125 593.507812 202.117188 592.140625 199.066406 590.699219 C 196.015625 589.253906 193 587.738281 190.023438 586.144531 C 187.046875 584.554688 184.113281 582.890625 181.214844 581.15625 C 178.320312 579.421875 175.46875 577.617188 172.664062 575.742188 C 169.855469 573.863281 167.097656 571.921875 164.386719 569.910156 C 161.675781 567.902344 159.015625 565.824219 156.40625 563.683594 C 153.796875 561.542969 151.242188 559.335938 148.742188 557.070312 C 146.238281 554.804688 143.796875 552.476562 141.410156 550.089844 C 139.023438 547.703125 136.695312 545.261719 134.429688 542.757812 C 132.160156 540.257812 129.957031 537.703125 127.816406 535.09375 C 125.675781 532.484375 123.597656 529.824219 121.589844 527.113281 C 119.578125 524.402344 117.632812 521.644531 115.757812 518.835938 C 113.882812 516.03125 112.078125 513.179688 110.34375 510.285156 C 108.609375 507.386719 106.945312 504.453125 105.355469 501.476562 C 103.761719 498.5 102.246094 495.484375 100.800781 492.433594 C 99.359375 489.382812 97.992188 486.296875 96.699219 483.179688 C 95.40625 480.058594 94.195312 476.910156 93.054688 473.734375 C 91.917969 470.554688 90.859375 467.351562 89.882812 464.121094 C 88.902344 460.890625 88 457.640625 87.179688 454.363281 C 86.359375 451.089844 85.621094 447.796875 84.964844 444.488281 C 84.304688 441.175781 83.726562 437.851562 83.230469 434.511719 C 82.738281 431.175781 82.324219 427.824219 81.992188 424.464844 C 81.664062 421.105469 81.414062 417.742188 81.25 414.371094 C 81.082031 411 81 407.625 81 404.25 C 81 400.875 81.082031 397.5 81.25 394.128906 C 81.414062 390.757812 81.664062 387.394531 81.992188 384.035156 C 82.324219 380.675781 82.738281 377.324219 83.230469 373.988281 C 83.726562 370.648438 84.304688 367.324219 84.964844 364.011719 C 85.621094 360.703125 86.359375 357.410156 87.179688 354.136719 C 88 350.859375 88.902344 347.609375 89.882812 344.378906 C 90.859375 341.148438 91.917969 337.945312 93.054688 334.765625 C 94.195312 331.589844 95.40625 328.441406 96.699219 325.320312 C 97.992188 322.203125 99.359375 319.117188 100.800781 316.066406 C 102.246094 313.015625 103.761719 310 105.355469 307.023438 C 106.945312 304.046875 108.609375 301.113281 110.34375 298.214844 C 112.078125 295.320312 113.882812 292.46875 115.757812 289.664062 C 117.632812 286.855469 119.578125 284.097656 121.589844 281.386719 C 123.597656 278.675781 125.675781 276.015625 127.816406 273.40625 C 129.957031 270.796875 132.160156 268.242188 134.429688 265.742188 C 136.695312 263.238281 139.023438 260.796875 141.410156 258.410156 C 143.796875 256.023438 146.238281 253.695312 148.742188 251.429688 C 151.242188 249.160156 153.796875 246.957031 156.40625 244.816406 C 159.015625 242.675781 161.675781 240.597656 164.386719 238.589844 C 167.097656 236.578125 169.855469 234.632812 172.664062 232.757812 C 175.46875 230.882812 178.320312 229.078125 181.214844 227.34375 C 184.113281 225.609375 187.046875 223.945312 190.023438 222.355469 C 193 220.761719 196.015625 219.246094 199.066406 217.800781 C 202.117188 216.359375 205.203125 214.992188 208.320312 213.699219 C 211.441406 212.40625 214.589844 211.195312 217.765625 210.054688 C 220.945312 208.917969 224.148438 207.859375 227.378906 206.882812 C 230.609375 205.902344 233.859375 205 237.136719 204.179688 C 240.410156 203.359375 243.703125 202.621094 247.011719 201.964844 C 250.324219 201.304688 253.648438 200.726562 256.988281 200.230469 C 260.324219 199.738281 263.675781 199.324219 267.035156 198.992188 C 270.394531 198.664062 273.757812 198.414062 277.128906 198.25 C 280.5 198.082031 283.875 198 287.25 198 C 290.625 198 294 198.082031 297.371094 198.25 C 300.742188 198.414062 304.105469 198.664062 307.464844 198.992188 C 310.824219 199.324219 314.175781 199.738281 317.511719 200.230469 C 320.851562 200.726562 324.175781 201.304688 327.488281 201.964844 C 330.796875 202.621094 334.089844 203.359375 337.363281 204.179688 C 340.640625 205 343.890625 205.902344 347.121094 206.882812 C 350.351562 207.859375 353.554688 208.917969 356.734375 210.054688 C 359.910156 211.195312 363.058594 212.40625 366.179688 213.699219 C 369.296875 214.992188 372.382812 216.359375 375.433594 217.800781 C 378.484375 219.246094 381.5 220.761719 384.476562 222.355469 C 387.453125 223.945312 390.386719 225.609375 393.285156 227.34375 C 396.179688 229.078125 399.03125 230.882812 401.835938 232.757812 C 404.644531 234.632812 407.402344 236.578125 410.113281 238.589844 C 412.824219 240.597656 415.484375 242.675781 418.09375 244.816406 C 420.703125 246.957031 423.257812 249.160156 425.757812 251.429688 C 428.261719 253.695312 430.703125 256.023438 433.089844 258.410156 C 435.476562 260.796875 437.804688 263.238281 440.070312 265.742188 C 442.339844 268.242188 444.542969 270.796875 446.683594 273.40625 C 448.824219 276.015625 450.902344 278.675781 452.910156 281.386719 C 454.921875 284.097656 456.863281 286.855469 458.742188 289.664062 C 460.617188 292.46875 462.421875 295.320312 464.15625 298.214844 C 465.890625 301.113281 467.554688 304.046875 469.144531 307.023438 C 470.738281 310 472.253906 313.015625 473.699219 316.066406 C 475.140625 319.117188 476.507812 322.203125 477.800781 325.320312 C 479.089844 328.441406 480.304688 331.589844 481.445312 334.765625 C 482.582031 337.945312 483.640625 341.148438 484.617188 344.378906 C 485.597656 347.609375 486.5 350.859375 487.320312 354.136719 C 488.140625 357.410156 488.878906 360.703125 489.535156 364.011719 C 490.195312 367.324219 490.773438 370.648438 491.269531 373.988281 C 491.761719 377.324219 492.175781 380.675781 492.507812 384.035156 C 492.835938 387.394531 493.085938 390.757812 493.25 394.128906 C 493.417969 397.5 493.5 400.875 493.5 404.25 Z M 493.5 404.25 " clip-rule="nonzero"/></clipPath><linearGradient x1="60.000002" gradientTransform="matrix(7.366071, 0, 0, 7.366071, 51.535729, 168.535732)" y1="3.999999" x2="4.000005" gradientUnits="userSpaceOnUse" y2="59.999996" id="4c162db6f4"><stop stop-opacity="1" stop-color="rgb(100%, 92.199707%, 93.699646%)" offset="0"/><stop stop-opacity="1" stop-color="rgb(100%, 92.199707%, 93.699646%)" offset="0.125"/><stop stop-opacity="1" stop-color="rgb(99.990845%, 92.082214%, 93.606567%)" offset="0.15625"/><stop stop-opacity="1" stop-color="rgb(99.969482%, 91.777039%, 93.367004%)" offset="0.171875"/><stop stop-opacity="1" stop-color="rgb(99.942017%, 91.404724%, 93.074036%)" offset="0.1875"/><stop stop-opacity="1" stop-color="rgb(99.916077%, 91.030884%, 92.779541%)" offset="0.203125"/><stop stop-opacity="1" stop-color="rgb(99.888611%, 90.657043%, 92.485046%)" offset="0.21875"/><stop stop-opacity="1" stop-color="rgb(99.862671%, 90.283203%, 92.192078%)" offset="0.234375"/><stop stop-opacity="1" stop-color="rgb(99.836731%, 89.910889%, 91.897583%)" offset="0.25"/><stop stop-opacity="1" stop-color="rgb(99.809265%, 89.537048%, 91.604614%)" offset="0.265625"/><stop stop-opacity="1" stop-color="rgb(99.783325%, 89.163208%, 91.31012%)" offset="0.28125"/><stop stop-opacity="1" stop-color="rgb(99.757385%, 88.789368%, 91.015625%)" offset="0.296875"/><stop stop-opacity="1" stop-color="rgb(99.729919%, 88.417053%, 90.722656%)" offset="0.3125"/><stop stop-opacity="1" stop-color="rgb(99.703979%, 88.043213%, 90.428162%)" offset="0.328125"/><stop stop-opacity="1" stop-color="rgb(99.676514%, 87.669373%, 90.135193%)" offset="0.34375"/><stop stop-opacity="1" stop-color="rgb(99.650574%, 87.297058%, 89.840698%)" offset="0.359375"/><stop stop-opacity="1" stop-color="rgb(99.624634%, 86.923218%, 89.546204%)" offset="0.375"/><stop stop-opacity="1" stop-color="rgb(99.597168%, 86.549377%, 89.253235%)" offset="0.390625"/><stop stop-opacity="1" stop-color="rgb(99.571228%, 86.175537%, 88.95874%)" offset="0.40625"/><stop stop-opacity="1" stop-color="rgb(99.545288%, 85.803223%, 88.665771%)" offset="0.421875"/><stop stop-opacity="1" stop-color="rgb(99.517822%, 85.429382%, 88.371277%)" offset="0.4375"/><stop stop-opacity="1" stop-color="rgb(99.491882%, 85.055542%, 88.076782%)" offset="0.453125"/><stop stop-opacity="1" stop-color="rgb(99.464417%, 84.681702%, 87.783813%)" offset="0.46875"/><stop stop-opacity="1" stop-color="rgb(99.438477%, 84.309387%, 87.489319%)" offset="0.484375"/><stop stop-opacity="1" stop-color="rgb(99.412537%, 83.935547%, 87.19635%)" offset="0.5"/><stop stop-opacity="1" stop-color="rgb(99.385071%, 83.561707%, 86.901855%)" offset="0.5"/><stop stop-opacity="1" stop-color="rgb(99.372864%, 83.375549%, 86.755371%)" offset="0.515625"/><stop stop-opacity="1" stop-color="rgb(99.359131%, 83.187866%, 86.607361%)" offset="0.53125"/><stop stop-opacity="1" stop-color="rgb(99.333191%, 82.815552%, 86.314392%)" offset="0.546875"/><stop stop-opacity="1" stop-color="rgb(99.305725%, 82.441711%, 86.019897%)" offset="0.5625"/><stop stop-opacity="1" stop-color="rgb(99.279785%, 82.067871%, 85.726929%)" offset="0.578125"/><stop stop-opacity="1" stop-color="rgb(99.252319%, 81.694031%, 85.432434%)" offset="0.59375"/><stop stop-opacity="1" stop-color="rgb(99.226379%, 81.321716%, 85.137939%)" offset="0.609375"/><stop stop-opacity="1" stop-color="rgb(99.200439%, 80.947876%, 84.844971%)" offset="0.625"/><stop stop-opacity="1" stop-color="rgb(99.172974%, 80.574036%, 84.550476%)" offset="0.640625"/><stop stop-opacity="1" stop-color="rgb(99.147034%, 80.201721%, 84.257507%)" offset="0.65625"/><stop stop-opacity="1" stop-color="rgb(99.121094%, 79.827881%, 83.963013%)" offset="0.671875"/><stop stop-opacity="1" stop-color="rgb(99.093628%, 79.454041%, 83.668518%)" offset="0.6875"/><stop stop-opacity="1" stop-color="rgb(99.067688%, 79.0802%, 83.375549%)" offset="0.703125"/><stop stop-opacity="1" stop-color="rgb(99.040222%, 78.707886%, 83.081055%)" offset="0.71875"/><stop stop-opacity="1" stop-color="rgb(99.014282%, 78.334045%, 82.788086%)" offset="0.734375"/><stop stop-opacity="1" stop-color="rgb(98.988342%, 77.960205%, 82.493591%)" offset="0.75"/><stop stop-opacity="1" stop-color="rgb(98.960876%, 77.586365%, 82.199097%)" offset="0.765625"/><stop stop-opacity="1" stop-color="rgb(98.934937%, 77.21405%, 81.906128%)" offset="0.78125"/><stop stop-opacity="1" stop-color="rgb(98.907471%, 76.84021%, 81.611633%)" offset="0.796875"/><stop stop-opacity="1" stop-color="rgb(98.881531%, 76.46637%, 81.317139%)" offset="0.8125"/><stop stop-opacity="1" stop-color="rgb(98.855591%, 76.092529%, 81.02417%)" offset="0.828125"/><stop stop-opacity="1" stop-color="rgb(98.828125%, 75.720215%, 80.729675%)" offset="0.84375"/><stop stop-opacity="1" stop-color="rgb(98.806763%, 75.416565%, 80.490112%)" offset="0.875"/><stop stop-opacity="1" stop-color="rgb(98.799133%, 75.299072%, 80.39856%)" offset="1"/></linearGradient><clipPath id="e7b33f3e08"><path d="M 166 286 L 408 286 L 408 523 L 166 523 Z M 166 286 " clip-rule="nonzero"/></clipPath><clipPath id="8c1c1aeb38"><path d="M 388.796875 413.5 L 407.265625 344.929688 C 408.363281 340.851562 407.488281 336.410156 404.914062 333.042969 C 402.292969 329.640625 398.335938 327.6875 394.050781 327.6875 L 218.304688 327.6875 L 212.683594 301.707031 C 210.730469 292.683594 202.613281 286.136719 193.382812 286.136719 L 171 286.136719 C 168.65625 286.136719 166.761719 288.027344 166.761719 290.371094 C 166.761719 292.714844 168.65625 294.605469 171 294.605469 L 193.382812 294.605469 C 198.652344 294.605469 203.285156 298.347656 204.394531 303.496094 L 234.472656 442.628906 C 236.519531 452.054688 245.003906 458.90625 254.65625 458.90625 L 386.074219 458.90625 C 388.414062 458.90625 390.308594 457.003906 390.308594 454.671875 C 390.308594 452.328125 388.414062 450.433594 386.074219 450.433594 L 254.667969 450.433594 C 248.984375 450.433594 243.972656 446.398438 242.765625 440.835938 L 239.046875 423.636719 L 375.582031 423.636719 C 381.765625 423.628906 387.191406 419.46875 388.796875 413.5 Z M 376.527344 336.15625 L 394.050781 336.15625 C 395.6875 336.15625 397.195312 336.902344 398.191406 338.199219 C 399.171875 339.480469 399.507812 341.175781 399.082031 342.730469 L 395.714844 355.230469 L 372.769531 355.230469 Z M 393.433594 363.691406 L 387.671875 385.074219 L 366.882812 385.074219 L 371.097656 363.691406 Z M 337.207031 336.15625 L 367.886719 336.15625 L 364.128906 355.230469 L 335.078125 355.230469 Z M 287.152344 336.15625 L 289.28125 355.230469 L 260.230469 355.230469 L 256.472656 336.15625 Z M 220.136719 336.15625 L 247.835938 336.15625 L 251.589844 355.230469 L 224.261719 355.230469 Z M 226.089844 363.691406 L 253.253906 363.691406 L 257.46875 385.074219 L 230.714844 385.074219 Z M 237.21875 415.160156 L 232.550781 393.554688 L 259.132812 393.554688 L 263.390625 415.160156 Z M 261.886719 363.691406 L 290.21875 363.691406 L 292.605469 385.074219 L 266.101562 385.074219 Z M 272.023438 415.160156 L 267.765625 393.554688 L 293.546875 393.554688 L 295.957031 415.160156 Z M 319.867188 415.160156 L 304.488281 415.160156 L 302.078125 393.554688 L 322.28125 393.554688 Z M 323.226562 385.082031 L 301.136719 385.082031 L 298.75 363.699219 L 325.613281 363.699219 Z M 297.804688 355.222656 L 295.675781 336.152344 L 328.683594 336.152344 L 326.554688 355.222656 Z M 352.328125 415.160156 L 328.398438 415.160156 L 330.804688 393.554688 L 356.578125 393.554688 Z M 331.75 385.082031 L 334.136719 363.699219 L 362.464844 363.699219 L 358.25 385.082031 Z M 365.21875 393.554688 L 385.394531 393.554688 L 380.613281 411.304688 C 380.003906 413.574219 377.933594 415.167969 375.582031 415.167969 L 360.960938 415.167969 Z M 268.253906 470.832031 C 254.042969 470.832031 242.488281 482.390625 242.488281 496.597656 C 242.488281 510.808594 254.050781 522.363281 268.253906 522.363281 C 282.453125 522.363281 294.019531 510.800781 294.019531 496.597656 C 294.019531 482.390625 282.460938 470.832031 268.253906 470.832031 Z M 356.101562 470.832031 C 341.890625 470.832031 330.335938 482.390625 330.335938 496.597656 C 330.335938 510.808594 341.890625 522.363281 356.101562 522.363281 C 370.308594 522.363281 381.867188 510.800781 381.867188 496.597656 C 381.867188 482.390625 370.308594 470.832031 356.101562 470.832031 Z M 356.101562 470.832031 " clip-rule="nonzero"/></clipPath><linearGradient x1="14.497501" gradientTransform="matrix(7.366071, 0, 0, 7.366071, 51.535729, 168.535732)" y1="46.889497" x2="46.932002" gradientUnits="userSpaceOnUse" y2="14.455" id="0bebca1470"><stop stop-opacity="1" stop-color="rgb(4.699707%, 75.299072%, 87.5%)" offset="0"/><stop stop-opacity="1" stop-color="rgb(4.699707%, 75.299072%, 87.5%)" offset="0.125"/><stop stop-opacity="1" stop-color="rgb(4.699707%, 75.299072%, 87.5%)" offset="0.1875"/><stop stop-opacity="1" stop-color="rgb(5.047607%, 75.115967%, 87.380981%)" offset="0.191406"/><stop stop-opacity="1" stop-color="rgb(5.397034%, 74.932861%, 87.263489%)" offset="0.195312"/><stop stop-opacity="1" stop-color="rgb(5.917358%, 74.658203%, 87.086487%)" offset="0.199219"/><stop stop-opacity="1" stop-color="rgb(6.439209%, 74.385071%, 86.911011%)" offset="0.203125"/><stop stop-opacity="1" stop-color="rgb(6.96106%, 74.111938%, 86.734009%)" offset="0.207031"/><stop stop-opacity="1" stop-color="rgb(7.48291%, 73.838806%, 86.558533%)" offset="0.210937"/><stop stop-opacity="1" stop-color="rgb(8.003235%, 73.564148%, 86.381531%)" offset="0.214844"/><stop stop-opacity="1" stop-color="rgb(8.525085%, 73.291016%, 86.206055%)" offset="0.21875"/><stop stop-opacity="1" stop-color="rgb(9.046936%, 73.016357%, 86.029053%)" offset="0.222656"/><stop stop-opacity="1" stop-color="rgb(9.568787%, 72.743225%, 85.853577%)" offset="0.226563"/><stop stop-opacity="1" stop-color="rgb(10.089111%, 72.468567%, 85.676575%)" offset="0.230469"/><stop stop-opacity="1" stop-color="rgb(10.610962%, 72.195435%, 85.501099%)" offset="0.234375"/><stop stop-opacity="1" stop-color="rgb(11.132812%, 71.920776%, 85.324097%)" offset="0.238281"/><stop stop-opacity="1" stop-color="rgb(11.654663%, 71.647644%, 85.148621%)" offset="0.242188"/><stop stop-opacity="1" stop-color="rgb(12.174988%, 71.372986%, 84.971619%)" offset="0.246094"/><stop stop-opacity="1" stop-color="rgb(12.696838%, 71.099854%, 84.796143%)" offset="0.25"/><stop stop-opacity="1" stop-color="rgb(13.218689%, 70.826721%, 84.619141%)" offset="0.253906"/><stop stop-opacity="1" stop-color="rgb(13.74054%, 70.553589%, 84.443665%)" offset="0.257812"/><stop stop-opacity="1" stop-color="rgb(14.260864%, 70.278931%, 84.266663%)" offset="0.261719"/><stop stop-opacity="1" stop-color="rgb(14.782715%, 70.005798%, 84.091187%)" offset="0.265625"/><stop stop-opacity="1" stop-color="rgb(15.304565%, 69.73114%, 83.914185%)" offset="0.269531"/><stop stop-opacity="1" stop-color="rgb(15.826416%, 69.458008%, 83.738708%)" offset="0.273438"/><stop stop-opacity="1" stop-color="rgb(16.346741%, 69.18335%, 83.561707%)" offset="0.277344"/><stop stop-opacity="1" stop-color="rgb(16.868591%, 68.910217%, 83.38623%)" offset="0.28125"/><stop stop-opacity="1" stop-color="rgb(17.390442%, 68.635559%, 83.209229%)" offset="0.285156"/><stop stop-opacity="1" stop-color="rgb(17.912292%, 68.362427%, 83.033752%)" offset="0.289062"/><stop stop-opacity="1" stop-color="rgb(18.432617%, 68.087769%, 82.85675%)" offset="0.292969"/><stop stop-opacity="1" stop-color="rgb(18.954468%, 67.814636%, 82.681274%)" offset="0.296875"/><stop stop-opacity="1" stop-color="rgb(19.476318%, 67.541504%, 82.504272%)" offset="0.300781"/><stop stop-opacity="1" stop-color="rgb(19.998169%, 67.268372%, 82.328796%)" offset="0.304688"/><stop stop-opacity="1" stop-color="rgb(20.518494%, 66.993713%, 82.151794%)" offset="0.308594"/><stop stop-opacity="1" stop-color="rgb(21.040344%, 66.720581%, 81.976318%)" offset="0.3125"/><stop stop-opacity="1" stop-color="rgb(21.562195%, 66.445923%, 81.799316%)" offset="0.316406"/><stop stop-opacity="1" stop-color="rgb(22.084045%, 66.172791%, 81.62384%)" offset="0.320312"/><stop stop-opacity="1" stop-color="rgb(22.60437%, 65.898132%, 81.446838%)" offset="0.324219"/><stop stop-opacity="1" stop-color="rgb(23.126221%, 65.625%, 81.271362%)" offset="0.328125"/><stop stop-opacity="1" stop-color="rgb(23.648071%, 65.350342%, 81.09436%)" offset="0.332031"/><stop stop-opacity="1" stop-color="rgb(24.169922%, 65.077209%, 80.918884%)" offset="0.335938"/><stop stop-opacity="1" stop-color="rgb(24.690247%, 64.802551%, 80.741882%)" offset="0.339844"/><stop stop-opacity="1" stop-color="rgb(25.212097%, 64.529419%, 80.566406%)" offset="0.34375"/><stop stop-opacity="1" stop-color="rgb(25.733948%, 64.256287%, 80.389404%)" offset="0.347656"/><stop stop-opacity="1" stop-color="rgb(26.255798%, 63.983154%, 80.213928%)" offset="0.351562"/><stop stop-opacity="1" stop-color="rgb(26.777649%, 63.708496%, 80.036926%)" offset="0.355469"/><stop stop-opacity="1" stop-color="rgb(27.2995%, 63.435364%, 79.86145%)" offset="0.359375"/><stop stop-opacity="1" stop-color="rgb(27.819824%, 63.160706%, 79.684448%)" offset="0.363281"/><stop stop-opacity="1" stop-color="rgb(28.341675%, 62.887573%, 79.508972%)" offset="0.367188"/><stop stop-opacity="1" stop-color="rgb(28.863525%, 62.612915%, 79.33197%)" offset="0.371094"/><stop stop-opacity="1" stop-color="rgb(29.385376%, 62.339783%, 79.156494%)" offset="0.375"/><stop stop-opacity="1" stop-color="rgb(29.905701%, 62.065125%, 78.979492%)" offset="0.378906"/><stop stop-opacity="1" stop-color="rgb(30.427551%, 61.791992%, 78.804016%)" offset="0.382812"/><stop stop-opacity="1" stop-color="rgb(30.949402%, 61.517334%, 78.627014%)" offset="0.386719"/><stop stop-opacity="1" stop-color="rgb(31.471252%, 61.244202%, 78.451538%)" offset="0.390625"/><stop stop-opacity="1" stop-color="rgb(31.991577%, 60.971069%, 78.274536%)" offset="0.394531"/><stop stop-opacity="1" stop-color="rgb(32.513428%, 60.697937%, 78.09906%)" offset="0.398438"/><stop stop-opacity="1" stop-color="rgb(33.035278%, 60.423279%, 77.922058%)" offset="0.402344"/><stop stop-opacity="1" stop-color="rgb(33.557129%, 60.150146%, 77.746582%)" offset="0.40625"/><stop stop-opacity="1" stop-color="rgb(34.077454%, 59.875488%, 77.56958%)" offset="0.410156"/><stop stop-opacity="1" stop-color="rgb(34.599304%, 59.602356%, 77.394104%)" offset="0.414062"/><stop stop-opacity="1" stop-color="rgb(35.121155%, 59.327698%, 77.217102%)" offset="0.417969"/><stop stop-opacity="1" stop-color="rgb(35.643005%, 59.054565%, 77.041626%)" offset="0.421875"/><stop stop-opacity="1" stop-color="rgb(36.16333%, 58.779907%, 76.864624%)" offset="0.425781"/><stop stop-opacity="1" stop-color="rgb(36.685181%, 58.506775%, 76.689148%)" offset="0.429687"/><stop stop-opacity="1" stop-color="rgb(37.207031%, 58.233643%, 76.512146%)" offset="0.433594"/><stop stop-opacity="1" stop-color="rgb(37.728882%, 57.96051%, 76.33667%)" offset="0.4375"/><stop stop-opacity="1" stop-color="rgb(38.249207%, 57.685852%, 76.159668%)" offset="0.441406"/><stop stop-opacity="1" stop-color="rgb(38.771057%, 57.41272%, 75.984192%)" offset="0.445313"/><stop stop-opacity="1" stop-color="rgb(39.292908%, 57.138062%, 75.80719%)" offset="0.449219"/><stop stop-opacity="1" stop-color="rgb(39.814758%, 56.864929%, 75.631714%)" offset="0.453125"/><stop stop-opacity="1" stop-color="rgb(40.335083%, 56.590271%, 75.456238%)" offset="0.457031"/><stop stop-opacity="1" stop-color="rgb(40.856934%, 56.317139%, 75.280762%)" offset="0.460938"/><stop stop-opacity="1" stop-color="rgb(41.378784%, 56.04248%, 75.10376%)" offset="0.464844"/><stop stop-opacity="1" stop-color="rgb(41.900635%, 55.769348%, 74.928284%)" offset="0.46875"/><stop stop-opacity="1" stop-color="rgb(42.420959%, 55.49469%, 74.751282%)" offset="0.472656"/><stop stop-opacity="1" stop-color="rgb(42.94281%, 55.221558%, 74.575806%)" offset="0.476562"/><stop stop-opacity="1" stop-color="rgb(43.464661%, 54.948425%, 74.398804%)" offset="0.480469"/><stop stop-opacity="1" stop-color="rgb(43.986511%, 54.675293%, 74.223328%)" offset="0.484375"/><stop stop-opacity="1" stop-color="rgb(44.506836%, 54.400635%, 74.046326%)" offset="0.488281"/><stop stop-opacity="1" stop-color="rgb(45.028687%, 54.127502%, 73.87085%)" offset="0.492188"/><stop stop-opacity="1" stop-color="rgb(45.550537%, 53.852844%, 73.693848%)" offset="0.496094"/><stop stop-opacity="1" stop-color="rgb(46.072388%, 53.579712%, 73.518372%)" offset="0.5"/><stop stop-opacity="1" stop-color="rgb(46.592712%, 53.305054%, 73.34137%)" offset="0.503906"/><stop stop-opacity="1" stop-color="rgb(47.114563%, 53.031921%, 73.165894%)" offset="0.507812"/><stop stop-opacity="1" stop-color="rgb(47.636414%, 52.757263%, 72.988892%)" offset="0.511719"/><stop stop-opacity="1" stop-color="rgb(48.158264%, 52.484131%, 72.813416%)" offset="0.515625"/><stop stop-opacity="1" stop-color="rgb(48.678589%, 52.209473%, 72.636414%)" offset="0.519531"/><stop stop-opacity="1" stop-color="rgb(49.200439%, 51.93634%, 72.460938%)" offset="0.523438"/><stop stop-opacity="1" stop-color="rgb(49.72229%, 51.663208%, 72.283936%)" offset="0.527344"/><stop stop-opacity="1" stop-color="rgb(50.244141%, 51.390076%, 72.108459%)" offset="0.53125"/><stop stop-opacity="1" stop-color="rgb(50.765991%, 51.115417%, 71.931458%)" offset="0.535156"/><stop stop-opacity="1" stop-color="rgb(51.287842%, 50.842285%, 71.755981%)" offset="0.539062"/><stop stop-opacity="1" stop-color="rgb(51.808167%, 50.567627%, 71.578979%)" offset="0.542969"/><stop stop-opacity="1" stop-color="rgb(52.330017%, 50.294495%, 71.403503%)" offset="0.546875"/><stop stop-opacity="1" stop-color="rgb(52.851868%, 50.019836%, 71.226501%)" offset="0.550781"/><stop stop-opacity="1" stop-color="rgb(53.373718%, 49.746704%, 71.051025%)" offset="0.554688"/><stop stop-opacity="1" stop-color="rgb(53.894043%, 49.472046%, 70.874023%)" offset="0.558594"/><stop stop-opacity="1" stop-color="rgb(54.415894%, 49.198914%, 70.698547%)" offset="0.5625"/><stop stop-opacity="1" stop-color="rgb(54.937744%, 48.924255%, 70.521545%)" offset="0.566406"/><stop stop-opacity="1" stop-color="rgb(55.459595%, 48.651123%, 70.346069%)" offset="0.570312"/><stop stop-opacity="1" stop-color="rgb(55.979919%, 48.377991%, 70.169067%)" offset="0.574219"/><stop stop-opacity="1" stop-color="rgb(56.50177%, 48.104858%, 69.993591%)" offset="0.578125"/><stop stop-opacity="1" stop-color="rgb(57.023621%, 47.8302%, 69.816589%)" offset="0.582031"/><stop stop-opacity="1" stop-color="rgb(57.545471%, 47.557068%, 69.641113%)" offset="0.585938"/><stop stop-opacity="1" stop-color="rgb(58.065796%, 47.28241%, 69.464111%)" offset="0.589844"/><stop stop-opacity="1" stop-color="rgb(58.587646%, 47.009277%, 69.288635%)" offset="0.59375"/><stop stop-opacity="1" stop-color="rgb(59.109497%, 46.734619%, 69.111633%)" offset="0.597656"/><stop stop-opacity="1" stop-color="rgb(59.631348%, 46.461487%, 68.936157%)" offset="0.601562"/><stop stop-opacity="1" stop-color="rgb(60.151672%, 46.186829%, 68.759155%)" offset="0.605469"/><stop stop-opacity="1" stop-color="rgb(60.673523%, 45.913696%, 68.583679%)" offset="0.609375"/><stop stop-opacity="1" stop-color="rgb(61.195374%, 45.639038%, 68.406677%)" offset="0.613281"/><stop stop-opacity="1" stop-color="rgb(61.717224%, 45.365906%, 68.231201%)" offset="0.617187"/><stop stop-opacity="1" stop-color="rgb(62.237549%, 45.092773%, 68.054199%)" offset="0.621094"/><stop stop-opacity="1" stop-color="rgb(62.759399%, 44.819641%, 67.878723%)" offset="0.625"/><stop stop-opacity="1" stop-color="rgb(63.28125%, 44.544983%, 67.701721%)" offset="0.628906"/><stop stop-opacity="1" stop-color="rgb(63.803101%, 44.271851%, 67.526245%)" offset="0.632813"/><stop stop-opacity="1" stop-color="rgb(64.323425%, 43.997192%, 67.349243%)" offset="0.636719"/><stop stop-opacity="1" stop-color="rgb(64.845276%, 43.72406%, 67.173767%)" offset="0.640625"/><stop stop-opacity="1" stop-color="rgb(65.367126%, 43.449402%, 66.996765%)" offset="0.644531"/><stop stop-opacity="1" stop-color="rgb(65.888977%, 43.17627%, 66.821289%)" offset="0.648438"/><stop stop-opacity="1" stop-color="rgb(66.409302%, 42.901611%, 66.644287%)" offset="0.652344"/><stop stop-opacity="1" stop-color="rgb(66.931152%, 42.628479%, 66.468811%)" offset="0.65625"/><stop stop-opacity="1" stop-color="rgb(67.453003%, 42.353821%, 66.291809%)" offset="0.660156"/><stop stop-opacity="1" stop-color="rgb(67.974854%, 42.080688%, 66.116333%)" offset="0.664062"/><stop stop-opacity="1" stop-color="rgb(68.495178%, 41.807556%, 65.939331%)" offset="0.667969"/><stop stop-opacity="1" stop-color="rgb(69.017029%, 41.534424%, 65.763855%)" offset="0.671875"/><stop stop-opacity="1" stop-color="rgb(69.538879%, 41.259766%, 65.586853%)" offset="0.675781"/><stop stop-opacity="1" stop-color="rgb(70.06073%, 40.986633%, 65.411377%)" offset="0.679688"/><stop stop-opacity="1" stop-color="rgb(70.581055%, 40.711975%, 65.234375%)" offset="0.683594"/><stop stop-opacity="1" stop-color="rgb(71.102905%, 40.438843%, 65.058899%)" offset="0.6875"/><stop stop-opacity="1" stop-color="rgb(71.624756%, 40.164185%, 64.881897%)" offset="0.691406"/><stop stop-opacity="1" stop-color="rgb(72.146606%, 39.891052%, 64.706421%)" offset="0.695312"/><stop stop-opacity="1" stop-color="rgb(72.666931%, 39.616394%, 64.529419%)" offset="0.699219"/><stop stop-opacity="1" stop-color="rgb(73.188782%, 39.343262%, 64.353943%)" offset="0.703125"/><stop stop-opacity="1" stop-color="rgb(73.710632%, 39.068604%, 64.176941%)" offset="0.707031"/><stop stop-opacity="1" stop-color="rgb(74.232483%, 38.795471%, 64.001465%)" offset="0.710938"/><stop stop-opacity="1" stop-color="rgb(74.754333%, 38.522339%, 63.824463%)" offset="0.714844"/><stop stop-opacity="1" stop-color="rgb(75.276184%, 38.249207%, 63.648987%)" offset="0.71875"/><stop stop-opacity="1" stop-color="rgb(75.796509%, 37.974548%, 63.471985%)" offset="0.722656"/><stop stop-opacity="1" stop-color="rgb(76.318359%, 37.701416%, 63.296509%)" offset="0.726562"/><stop stop-opacity="1" stop-color="rgb(76.84021%, 37.426758%, 63.119507%)" offset="0.730469"/><stop stop-opacity="1" stop-color="rgb(77.362061%, 37.153625%, 62.944031%)" offset="0.734375"/><stop stop-opacity="1" stop-color="rgb(77.882385%, 36.878967%, 62.767029%)" offset="0.738281"/><stop stop-opacity="1" stop-color="rgb(78.404236%, 36.605835%, 62.591553%)" offset="0.742188"/><stop stop-opacity="1" stop-color="rgb(78.926086%, 36.331177%, 62.414551%)" offset="0.746094"/><stop stop-opacity="1" stop-color="rgb(79.447937%, 36.058044%, 62.239075%)" offset="0.75"/><stop stop-opacity="1" stop-color="rgb(79.968262%, 35.783386%, 62.062073%)" offset="0.753906"/><stop stop-opacity="1" stop-color="rgb(80.490112%, 35.510254%, 61.886597%)" offset="0.757812"/><stop stop-opacity="1" stop-color="rgb(81.011963%, 35.237122%, 61.709595%)" offset="0.761719"/><stop stop-opacity="1" stop-color="rgb(81.533813%, 34.963989%, 61.534119%)" offset="0.765625"/><stop stop-opacity="1" stop-color="rgb(82.054138%, 34.689331%, 61.357117%)" offset="0.769531"/><stop stop-opacity="1" stop-color="rgb(82.575989%, 34.416199%, 61.181641%)" offset="0.773438"/><stop stop-opacity="1" stop-color="rgb(83.097839%, 34.141541%, 61.004639%)" offset="0.777344"/><stop stop-opacity="1" stop-color="rgb(83.61969%, 33.868408%, 60.829163%)" offset="0.78125"/><stop stop-opacity="1" stop-color="rgb(84.140015%, 33.59375%, 60.652161%)" offset="0.785156"/><stop stop-opacity="1" stop-color="rgb(84.661865%, 33.320618%, 60.476685%)" offset="0.789062"/><stop stop-opacity="1" stop-color="rgb(85.183716%, 33.045959%, 60.299683%)" offset="0.792969"/><stop stop-opacity="1" stop-color="rgb(85.705566%, 32.772827%, 60.124207%)" offset="0.796875"/><stop stop-opacity="1" stop-color="rgb(86.225891%, 32.498169%, 59.947205%)" offset="0.800781"/><stop stop-opacity="1" stop-color="rgb(86.747742%, 32.225037%, 59.771729%)" offset="0.804688"/><stop stop-opacity="1" stop-color="rgb(87.269592%, 31.951904%, 59.594727%)" offset="0.808594"/><stop stop-opacity="1" stop-color="rgb(87.791443%, 31.678772%, 59.41925%)" offset="0.8125"/><stop stop-opacity="1" stop-color="rgb(88.311768%, 31.404114%, 59.242249%)" offset="0.816406"/><stop stop-opacity="1" stop-color="rgb(88.833618%, 31.130981%, 59.066772%)" offset="0.820312"/><stop stop-opacity="1" stop-color="rgb(89.355469%, 30.856323%, 58.889771%)" offset="0.824219"/><stop stop-opacity="1" stop-color="rgb(89.877319%, 30.583191%, 58.714294%)" offset="0.828125"/><stop stop-opacity="1" stop-color="rgb(90.397644%, 30.308533%, 58.537292%)" offset="0.832031"/><stop stop-opacity="1" stop-color="rgb(90.919495%, 30.0354%, 58.361816%)" offset="0.835938"/><stop stop-opacity="1" stop-color="rgb(91.441345%, 29.760742%, 58.184814%)" offset="0.839844"/><stop stop-opacity="1" stop-color="rgb(91.963196%, 29.48761%, 58.009338%)" offset="0.84375"/><stop stop-opacity="1" stop-color="rgb(92.483521%, 29.212952%, 57.832336%)" offset="0.847656"/><stop stop-opacity="1" stop-color="rgb(93.005371%, 28.939819%, 57.65686%)" offset="0.851562"/><stop stop-opacity="1" stop-color="rgb(93.527222%, 28.666687%, 57.479858%)" offset="0.855469"/><stop stop-opacity="1" stop-color="rgb(94.049072%, 28.393555%, 57.304382%)" offset="0.859375"/><stop stop-opacity="1" stop-color="rgb(94.569397%, 28.118896%, 57.12738%)" offset="0.863281"/><stop stop-opacity="1" stop-color="rgb(95.091248%, 27.845764%, 56.951904%)" offset="0.867187"/><stop stop-opacity="1" stop-color="rgb(95.613098%, 27.571106%, 56.774902%)" offset="0.871094"/><stop stop-opacity="1" stop-color="rgb(96.134949%, 27.297974%, 56.599426%)" offset="0.875"/><stop stop-opacity="1" stop-color="rgb(96.655273%, 27.023315%, 56.422424%)" offset="0.878906"/><stop stop-opacity="1" stop-color="rgb(97.177124%, 26.750183%, 56.246948%)" offset="0.882813"/><stop stop-opacity="1" stop-color="rgb(97.698975%, 26.475525%, 56.069946%)" offset="0.886719"/><stop stop-opacity="1" stop-color="rgb(98.220825%, 26.202393%, 55.89447%)" offset="0.890625"/><stop stop-opacity="1" stop-color="rgb(98.509216%, 26.049805%, 55.796814%)" offset="0.894531"/><stop stop-opacity="1" stop-color="rgb(98.799133%, 25.898743%, 55.699158%)" offset="0.898438"/><stop stop-opacity="1" stop-color="rgb(98.799133%, 25.898743%, 55.699158%)" offset="0.90625"/><stop stop-opacity="1" stop-color="rgb(98.799133%, 25.898743%, 55.699158%)" offset="0.9375"/><stop stop-opacity="1" stop-color="rgb(98.799133%, 25.898743%, 55.699158%)" offset="1"/></linearGradient></defs><g clip-path="url(#b76125062a)"><g clip-path="url(#69e8377877)"><path fill="url(#4c162db6f4)" d="M 81 198 L 81 610.5 L 493.5 610.5 L 493.5 198 Z M 81 198 " fill-rule="nonzero"/></g></g><g clip-path="url(#e7b33f3e08)"><g clip-path="url(#8c1c1aeb38)"><path fill="url(#0bebca1470)" d="M 166.761719 286.136719 L 166.761719 522.363281 L 408.363281 522.363281 L 408.363281 286.136719 Z M 166.761719 286.136719 " fill-rule="nonzero"/></g></g></svg>